<svg xmlns="http://www.w3.org/2000/svg" data-name="Layer 1" viewBox="0 0 95 118.75" x="0px" y="0px"><path d="M54.787,84.366a1.266,1.266,0,0,1-1.266,1.266H41.479a1.267,1.267,0,0,1,0-2.533H53.521A1.266,1.266,0,0,1,54.787,84.366Zm21.7-78.438V89.072A4.934,4.934,0,0,1,71.555,94H23.445a4.934,4.934,0,0,1-4.928-4.928V5.928A4.934,4.934,0,0,1,23.445,1h48.11A4.934,4.934,0,0,1,76.483,5.928ZM40.119,3.533l.613,2.59H54.268l.613-2.59Zm33.831,2.4a2.4,2.4,0,0,0-2.395-2.395H57.484L56.5,7.681a1.266,1.266,0,0,1-1.233.975H39.729A1.265,1.265,0,0,1,38.5,7.681l-.981-4.148H23.445a2.4,2.4,0,0,0-2.395,2.4V89.072a2.4,2.4,0,0,0,2.395,2.395h48.11a2.4,2.4,0,0,0,2.395-2.395ZM62.016,37.8c.509,5.809.722,11.88-1.151,16.921C58.841,60.163,54.6,63.894,47.9,66.122a1.279,1.279,0,0,1-.8,0c-6.7-2.228-10.941-5.959-12.965-11.406C32.262,49.675,32.475,43.6,32.984,37.8a1.267,1.267,0,0,1,.945-1.116,12.58,12.58,0,0,0,7.41-5.581,1.267,1.267,0,0,1,1.076-.6h10.17a1.267,1.267,0,0,1,1.076.6,12.581,12.581,0,0,0,7.409,5.581A1.267,1.267,0,0,1,62.016,37.8Zm-2.45,1.081A15.21,15.21,0,0,1,51.9,33.033H43.1a15.2,15.2,0,0,1-7.666,5.843c-.9,10.988-.375,20.379,12.066,24.706C59.941,59.255,60.468,49.864,59.566,38.876Zm-4.791,7.618v5.28a3.073,3.073,0,0,1-3.07,3.07H43.294a3.074,3.074,0,0,1-3.07-3.07v-5.28a3.073,3.073,0,0,1,2.285-2.965v-.815a4.991,4.991,0,0,1,9.982,0v.815A3.072,3.072,0,0,1,54.775,46.494Zm-9.733-3.07h4.915v-.71a2.458,2.458,0,0,0-4.915,0Zm2.843,5.4a.385.385,0,1,0-.385.385A.385.385,0,0,0,47.885,48.825Zm4.357-2.331a.544.544,0,0,0-.537-.537H43.294a.543.543,0,0,0-.536.537v5.28a.543.543,0,0,0,.536.537h3.745a1.266,1.266,0,0,1-.806-1.179v-.356a1.272,1.272,0,0,1,.019-.206,2.149,2.149,0,1,1,2.5,0,1.282,1.282,0,0,1,.018.206v.356a1.265,1.265,0,0,1-.8,1.179h3.744a.544.544,0,0,0,.537-.537Z"/><text x="0" y="110" fill="#000000" font-size="5px" font-weight="bold" font-family="'Helvetica Neue', Helvetica, Arial-Unicode, Arial, Sans-serif">Created by Siti Masriatun</text><text x="0" y="115" fill="#000000" font-size="5px" font-weight="bold" font-family="'Helvetica Neue', Helvetica, Arial-Unicode, Arial, Sans-serif">from the Noun Project</text></svg>