<svg xmlns="http://www.w3.org/2000/svg" data-name="Layer 1" viewBox="0 0 64 80" x="0px" y="0px"><path d="M58,48H55.152a5.5,5.5,0,1,0-6.3,0H46a4,4,0,0,0-4,4V62h2V52a2,2,0,0,1,2-2H58a2,2,0,0,1,2,2V62h2V52A4,4,0,0,0,58,48Zm-6-1a3.5,3.5,0,1,1,3.5-3.5A3.5,3.5,0,0,1,52,47Z"/><rect x="56" y="53" width="2" height="9"/><rect x="46" y="53" width="2" height="9"/><path d="M6,59H26a4,4,0,0,0,4-4V23.949A11,11,0,1,0,18,13H6a4,4,0,0,0-4,4V55A4,4,0,0,0,6,59ZM29,4a9,9,0,1,1-9,9A9.011,9.011,0,0,1,29,4ZM6,15H18.191a10.908,10.908,0,0,0,.573,2H4A2,2,0,0,1,6,15ZM4,19H19.792A11,11,0,0,0,28,23.949V53H4ZM28,55a2,2,0,0,1-2,2H6a2,2,0,0,1-2-2Z"/><rect x="42.24" y="31.24" width="2" height="5.999" transform="translate(-11.547 40.604) rotate(-45)"/><rect x="38.942" y="37.366" width="2" height="6" transform="translate(-7.474 71.615) rotate(-78.689)"/><rect x="48.366" y="27.942" width="2" height="6" transform="translate(-5.11 10.283) rotate(-11.311)"/><path d="M8,40H24a1,1,0,0,0,1-1V26a1,1,0,0,0-1-1H8a1,1,0,0,0-1,1V39A1,1,0,0,0,8,40ZM21.339,27,16,31.671,10.661,27ZM9,28.2l6.341,5.548a1,1,0,0,0,1.318,0L23,28.2V38H9Z"/><polygon points="10.414 43.172 9 44.586 7.586 43.172 6.172 44.586 7.586 46 6.172 47.414 7.586 48.828 9 47.414 10.414 48.828 11.828 47.414 10.414 46 11.828 44.586 10.414 43.172"/><polygon points="17.414 43.172 16 44.586 14.586 43.172 13.172 44.586 14.586 46 13.172 47.414 14.586 48.828 16 47.414 17.414 48.828 18.828 47.414 17.414 46 18.828 44.586 17.414 43.172"/><polygon points="24.414 43.172 23 44.586 21.586 43.172 20.172 44.586 21.586 46 20.172 47.414 21.586 48.828 23 47.414 24.414 48.828 25.828 47.414 24.414 46 25.828 44.586 24.414 43.172"/><path d="M25,19h8a1,1,0,0,0,1-1V12a1,1,0,0,0-1-1V10a4,4,0,0,0-8,0v1a1,1,0,0,0-1,1v6A1,1,0,0,0,25,19Zm2-9a2,2,0,0,1,4,0v1H27Zm-1,3h6v4H26Z"/><rect x="33" y="53" width="2" height="2"/><rect x="37" y="53" width="2" height="2"/><text x="0" y="79" fill="#000000" font-size="5px" font-weight="bold" font-family="'Helvetica Neue', Helvetica, Arial-Unicode, Arial, Sans-serif">Created by Kamin Ginkaew</text><text x="0" y="84" fill="#000000" font-size="5px" font-weight="bold" font-family="'Helvetica Neue', Helvetica, Arial-Unicode, Arial, Sans-serif">from the Noun Project</text></svg>